<svg width="118" height="120" viewBox="0 0 118 120" fill="none" xmlns="http://www.w3.org/2000/svg">
<path d="M6.98714 88.9751L17.1428 85.3124C19.8853 89.9856 23.4144 94.2067 27.6099 97.7968L22.7041 108.277L44.7363 119.041L49.631 108.561C54.8919 109.617 60.191 109.79 65.3644 109.092L69.0901 119.89L87.5056 113.24L83.8234 102.61C88.5434 99.7788 92.7611 96.0882 96.3778 91.6829L106.621 96.6912L117.126 74.2462L106.872 69.2324C107.938 63.7272 108.101 58.1607 107.363 52.756L117.513 49.0989L111.013 30.2775L100.858 33.9345C98.1311 29.2781 94.6078 25.0738 90.4389 21.4893L95.3456 10.9982L73.2145 0.177734L68.3089 10.68C62.8405 9.59123 57.2956 9.42932 51.9365 10.2389L48.4948 0.272651L30.0683 6.9224L33.5699 17.0562C29.134 19.8088 25.1133 23.3318 21.6826 27.5082L11.4177 22.4943L0.846814 45.0845L11.1171 50.0983C10.0628 55.5699 9.90992 61.1087 10.6474 66.491L0.491699 70.1481L6.98714 88.9751ZM59 42.2202C68.0521 42.2202 75.3889 49.7187 75.3889 58.9702C75.3889 68.2218 68.0521 75.7202 59 75.7202C49.9479 75.7202 42.6111 68.2218 42.6111 58.9702C42.6111 49.7187 49.9479 42.2202 59 42.2202Z" fill="white"/>
</svg>
