<svg width="24" height="24" viewBox="0 0 24 24" fill="none" xmlns="http://www.w3.org/2000/svg">
<path d="M21 0H18V1.5H6V0H3V1.5H0V6V7.5V22.5V24H1.5H24V22.5V7.5V6V1.5H21V0ZM22.5 7.5V22.5H1.5V7.5H22.5Z" fill="white"/>
<path d="M21 9H16.5V13.5H21V9Z" fill="white"/>
<path d="M21 15H16.5V19.5H21V15Z" fill="white"/>
<path d="M15 15H10.5V19.5H15V15Z" fill="white"/>
<path d="M9 15H4.5V19.5H9V15Z" fill="white"/>
<path d="M15 9H10.5V13.5H15V9Z" fill="white"/>
<path d="M9 9H4.5V13.5H9V9Z" fill="white"/>
</svg>
