<svg width="121" height="135" viewBox="0 0 121 135" fill="none" xmlns="http://www.w3.org/2000/svg">
<path d="M86.9688 130.781H34.0312C31.0227 130.781 28.1374 129.448 26.01 127.074C23.8826 124.701 22.6875 121.482 22.6875 118.125V16.875C22.6875 13.5184 23.8826 10.2992 26.01 7.92568C28.1374 5.55217 31.0227 4.21875 34.0312 4.21875H86.9688C89.9773 4.21875 92.8626 5.55217 94.99 7.92568C97.1174 10.2992 98.3125 13.5184 98.3125 16.875V118.125C98.3125 121.482 97.1174 124.701 94.99 127.074C92.8626 129.448 89.9773 130.781 86.9688 130.781V130.781ZM34.0312 12.6562C33.0284 12.6563 32.0666 13.1007 31.3575 13.8919C30.6484 14.6831 30.25 15.7561 30.25 16.875V118.125C30.25 119.244 30.6484 120.317 31.3575 121.108C32.0666 121.899 33.0284 122.344 34.0312 122.344H86.9688C87.9716 122.344 88.9334 121.899 89.6425 121.108C90.3516 120.317 90.75 119.244 90.75 118.125V16.875C90.75 15.7561 90.3516 14.6831 89.6425 13.8919C88.9334 13.1007 87.9716 12.6563 86.9688 12.6562H34.0312Z" fill="white"/>
<path d="M94.5312 29.5312H26.4688C25.4659 29.5312 24.5041 29.0868 23.795 28.2956C23.0859 27.5044 22.6875 26.4314 22.6875 25.3125C22.6875 24.1936 23.0859 23.1206 23.795 22.3294C24.5041 21.5382 25.4659 21.0938 26.4688 21.0938H94.5312C95.5341 21.0938 96.4959 21.5382 97.205 22.3294C97.9141 23.1206 98.3125 24.1936 98.3125 25.3125C98.3125 26.4314 97.9141 27.5044 97.205 28.2956C96.4959 29.0868 95.5341 29.5312 94.5312 29.5312Z" fill="white"/>
<path d="M94.5312 105.469H26.4688C25.4659 105.469 24.5041 105.024 23.795 104.233C23.0859 103.442 22.6875 102.369 22.6875 101.25C22.6875 100.131 23.0859 99.0581 23.795 98.2669C24.5041 97.4757 25.4659 97.0312 26.4688 97.0312H94.5312C95.5341 97.0312 96.4959 97.4757 97.205 98.2669C97.9141 99.0581 98.3125 100.131 98.3125 101.25C98.3125 102.369 97.9141 103.442 97.205 104.233C96.4959 105.024 95.5341 105.469 94.5312 105.469Z" fill="white"/>
<path d="M64.2812 109.688H56.7188V118.125H64.2812V109.688Z" fill="white"/>
</svg>
